<svg xmlns="http://www.w3.org/2000/svg"
     viewBox="0 0 64 64"
     width="64"
     height="64">

  <defs>
    <linearGradient id="favGradient" x1="0" y1="0" x2="1" y2="1">
      <stop offset="0%" stop-color="#3FA9F5"/>
      <stop offset="100%" stop-color="#0B5ED7"/>
    </linearGradient>
  </defs>

  <!-- Fundo -->
  <rect x="0" y="0" width="64" height="64" rx="12" fill="#0A2540"/>

  <!-- Cloud -->
  <path d="M20 36
           C20 28,28 24,34 26
           C36 22,44 22,46 28
           C52 30,52 38,46 40
           H22
           C18 40,16 38,16 36
           C16 34,18 36,20 36Z"
        fill="url(#favGradient)"/>

  <!-- Infra nodes -->
  <circle cx="26" cy="34" r="2" fill="#FFFFFF"/>
  <circle cx="34" cy="30" r="2" fill="#FFFFFF"/>
  <circle cx="42" cy="34" r="2" fill="#FFFFFF"/>

  <line x1="26" y1="34" x2="34" y2="30" stroke="#FFFFFF" stroke-width="1.5"/>
  <line x1="34" y1="30" x2="42" y2="34" stroke="#FFFFFF" stroke-width="1.5"/>

</svg>